<?xml version="1.0" standalone="no"?>
<!DOCTYPE svg PUBLIC "-//W3C//DTD SVG 20010904//EN"
 "http://www.w3.org/TR/2001/REC-SVG-20010904/DTD/svg10.dtd">
<svg version="1.0" xmlns="http://www.w3.org/2000/svg"
 width="310.000000pt" height="316.000000pt" viewBox="0 0 310.000000 316.000000"
 preserveAspectRatio="xMidYMid meet">

<g transform="translate(0.000000,316.000000) scale(0.100000,-0.100000)"
fill="#192227" stroke="none">
<path d="M1355 3049 c-642 -77 -1157 -562 -1271 -1194 -24 -133 -24 -374 0
-505 21 -115 82 -302 129 -396 201 -399 594 -694 1021 -769 124 -21 160 -18
49 6 -194 41 -409 137 -564 254 -179 134 -359 352 -443 538 -47 102 -93 250
-112 360 -23 125 -22 343 1 472 85 486 419 891 880 1069 50 19 107 37 128 41
l37 7 0 -53 c0 -30 7 -211 15 -404 26 -644 29 -778 16 -817 -6 -20 -33 -58
-58 -84 -70 -75 -88 -121 -87 -234 0 -107 19 -190 66 -293 33 -72 94 -137 129
-137 63 0 130 82 174 214 65 194 48 345 -49 446 -70 72 -71 77 -68 240 4 216
42 1153 47 1158 2 3 71 4 152 4 387 -1 734 -149 1002 -427 197 -205 327 -450
381 -720 10 -50 19 -76 19 -58 1 49 -34 219 -64 308 -166 496 -599 870 -1110
959 -115 20 -317 28 -420 15z m-165 -1930 c12 -41 28 -86 36 -101 8 -16 11
-28 6 -28 -15 0 -72 135 -87 206 -8 38 -14 98 -14 134 l1 65 18 -101 c9 -56
27 -135 40 -175z"/>
<path d="M1675 2456 c411 -96 695 -442 695 -848 0 -187 -44 -338 -142 -484
-56 -84 -181 -204 -262 -253 -71 -43 -218 -103 -228 -93 -10 11 -32 650 -24
705 6 37 17 58 57 101 53 58 83 116 93 181 6 36 -35 419 -50 468 -3 9 -12 17
-20 17 -11 0 -14 -8 -10 -32 3 -18 13 -109 21 -202 16 -171 13 -196 -20 -196
-30 0 -45 36 -45 112 0 41 -3 130 -7 196 -6 113 -8 122 -26 122 -19 0 -19 -5
-13 -107 13 -223 11 -292 -7 -310 -13 -14 -21 -15 -42 -5 l-27 12 8 205 c6
185 5 205 -9 205 -22 0 -25 -17 -32 -224 -3 -106 -10 -185 -17 -193 -15 -18
-47 -16 -55 4 -4 9 1 105 10 211 10 107 15 197 12 200 -17 17 -31 -37 -51
-195 -38 -295 -31 -353 53 -451 60 -69 64 -75 73 -119 8 -32 -3 -479 -16 -650
l-6 -83 -93 0 c-216 0 -455 105 -606 267 -101 108 -184 261 -218 400 -15 59
-20 69 -20 43 -1 -62 39 -203 84 -295 144 -294 419 -476 760 -501 l97 -7 -6
-71 c-3 -39 -8 -151 -12 -249 l-6 -178 33 5 c19 3 56 8 83 11 27 4 54 9 60 11
8 3 9 44 5 142 -4 75 -7 187 -8 248 l-1 111 52 12 c73 17 222 90 294 144 123
93 224 220 290 362 126 273 98 621 -71 875 -60 91 -204 225 -296 277 -95 54
-235 100 -324 108 l-70 5 60 -14z m139 -758 c-18 -37 -53 -78 -65 -78 -5 0 2
16 15 35 13 19 32 55 42 80 16 39 19 42 22 21 2 -14 -4 -40 -14 -58z"/>
</g>
</svg>
